# xmcd CD database file
#
# Track frame offsets:
#	150
#	13804
#	26084
#	40671
#	52752
#	64499
#	76246
#	88622
#	100838
#	115991
#	128255
#	142813
#	156277
#	169701
#	181547
#	194303
#	209052
#	221676
#
# Disc length: 3119 seconds
#
# Revision: 0
# Processed by: cddbd v1.5.2PL0 Copyright (c) Steve Scherf et al.
# Submitted via: CDex 1.70beta2
#
DISCID=ec0c2d12
DTITLE=Django Reinhardt - Echoes Of France
DYEAR=2000
DGENRE=Jazz
TTITLE0=Blues Clair
TTITLE1=Bouncing Around (Rhythm in C Minor)
TTITLE2=Minor Swing
TTITLE3=St. Louis Blues
TTITLE4=Django's Tiger
TTITLE5=Tears
TTITLE6=Limehouse Blues
TTITLE7=Sweet Chorus
TTITLE8=Ol' Man River
TTITLE9=Si Tu Savais
TTITLE10=Viper's Dream
TTITLE11=In a Sentimental Mood
TTITLE12=Daphné
TTITLE13=Oriental Shuffle
TTITLE14=Sweet Sue
TTITLE15=Nuages
TTITLE16=Are You In The Mood?
TTITLE17=Echoes Of France (La Marseillaise)
EXTD=YEAR: 2000
EXTT0=
EXTT1=
EXTT2=
EXTT3=
EXTT4=
EXTT5=
EXTT6=
EXTT7=
EXTT8=
EXTT9=
EXTT10=
EXTT11=
EXTT12=
EXTT13=
EXTT14=
EXTT15=
EXTT16=
EXTT17=
PLAYORDER=
